<svg xmlns="http://www.w3.org/2000/svg" viewBox="0 0 960 540" role="img" aria-labelledby="title desc">
  <title id="title">bizinfo-alert UI 개략도</title>
  <desc id="desc">헤더, 사이드 필터, 공고 카드 그리드 등을 설명하는 도식화된 레이아웃</desc>
  <defs>
    <style type="text/css"><![CDATA[
      text { font-family: 'Pretendard', 'Noto Sans KR', sans-serif; fill: #1f2937; }
      .heading { font-size: 32px; font-weight: 700; }
      .label { font-size: 18px; font-weight: 600; }
      .body { font-size: 16px; }
      .card-title { font-size: 14px; font-weight: 600; }
      .card-body { font-size: 12px; fill: #4b5563; }
    ]]></style>
  </defs>
  <rect width="960" height="540" fill="#f3f4f6" rx="32" />
  <rect x="24" y="24" width="912" height="80" rx="16" fill="#111827" opacity="0.9" />
  <text x="48" y="75" fill="#f9fafb" class="heading">bizinfo-alert</text>
  <rect x="320" y="44" width="240" height="40" rx="12" fill="#1f2937" opacity="0.4" />
  <text x="332" y="70" fill="#d1d5db" class="body">검색어를 입력하세요...</text>
  <rect x="576" y="44" width="120" height="40" rx="12" fill="#1f2937" opacity="0.4" />
  <text x="600" y="70" fill="#d1d5db" class="body">정렬 · 최신순</text>
  <rect x="712" y="44" width="200" height="40" rx="12" fill="#2563eb" opacity="0.9" />
  <text x="732" y="70" fill="#e0f2fe" class="body">관심 태그: #기술 #서울</text>
  <rect x="24" y="124" width="240" height="392" rx="24" fill="#ffffff" />
  <text x="48" y="164" class="label">필터 패널</text>
  <text x="48" y="196" class="body">· 분야 체크박스</text>
  <text x="48" y="224" class="body">· 기관 자동완성</text>
  <text x="48" y="252" class="body">· 태그 멀티셀렉트</text>
  <text x="48" y="280" class="body">· 모집 기간 선택</text>
  <text x="48" y="356" class="body" fill="#2563eb">무한 스크롤 + 페이지 정보</text>
  <rect x="288" y="124" width="648" height="296" rx="24" fill="#ffffff" />
  <text x="312" y="164" class="label">공고 카드 그리드</text>
  <g transform="translate(312,188)">
    <rect width="192" height="120" rx="16" fill="#f9fafb" stroke="#d1d5db" />
    <text x="16" y="32" class="card-title">창업 지원 바우처</text>
    <text x="16" y="52" class="card-body">서울창업허브 · 2024-09-01 마감</text>
    <text x="16" y="72" class="card-body">#창업 #서울 #기술</text>
  </g>
  <g transform="translate(520,188)">
    <rect width="192" height="120" rx="16" fill="#f9fafb" stroke="#d1d5db" />
    <text x="16" y="32" class="card-title">수출 기업 육성</text>
    <text x="16" y="52" class="card-body">중소벤처부 · 2024-08-15 마감</text>
    <text x="16" y="72" class="card-body">#수출 #부산 #경영</text>
  </g>
  <g transform="translate(728,188)">
    <rect width="192" height="120" rx="16" fill="#f9fafb" stroke="#d1d5db" />
    <text x="16" y="32" class="card-title">디지털 전환 지원</text>
    <text x="16" y="52" class="card-body">경기도청 · 2024-10-30 마감</text>
    <text x="16" y="72" class="card-body">#기술 #경기 #디지털</text>
  </g>
  <text x="312" y="344" class="body">· React Query 무한 스크롤</text>
  <text x="312" y="372" class="body">· 북마크 토글 (★)</text>
  <text x="312" y="400" class="body">· 자동 태깅 배지</text>
  <rect x="288" y="432" width="648" height="84" rx="20" fill="#111827" opacity="0.92" />
  <text x="312" y="480" fill="#e5e7eb" class="body">데이터 출처: 기업마당 · Kakao 알림톡 연동 준비 상태</text>
</svg>
